<svg style="display:none;">
<symbol id="add" viewBox="0 0 24 24" fill="currentColor"><path d="M13 4V11L20 11V13L13 13V20H11L11 13H4L4 11L11 11L11 4L13 4Z" fill="currentColor" />
</symbol>
<symbol id="delete-1-filled" viewBox="0 0 24 24" fill="currentColor"><path d="M7.5 3H16.5V1H7.5V3Z" fill="currentColor" />
    <path d="M22 6V4H2V6H4.02898L4.52898 23H19.471L19.971 6H22ZM16.2431 10.6715L13.4147 13.5L16.2431 16.3284L14.8289 17.7426L12.0005 14.9142L9.17203 17.7426L7.75781 16.3284L10.5862 13.5L7.75781 10.6715L9.17203 9.25732L12.0005 12.0858L14.8289 9.25732L16.2431 10.6715Z" fill="currentColor" />
</symbol>
<symbol id="edit" viewBox="0 0 24 24" fill="currentColor"><path d="M15.7478 2.94736C16.5289 2.16631 17.7952 2.16631 18.5763 2.94736L21.0511 5.42223C21.8322 6.20328 21.8322 7.46961 21.0511 8.25066L9.15806 20.1437L2.77832 21.2202L3.85476 14.8404L15.7478 2.94736ZM15.5192 6.00439L17.9941 8.47927L19.6369 6.83645L17.1621 4.36157L15.5192 6.00439ZM16.5799 9.89348L14.105 7.41861L5.72062 15.803L5.21828 18.7802L8.19549 18.2779L16.5799 9.89348Z" fill="currentColor" />
</symbol>
<symbol id="mode-dark-filled" viewBox="0 0 25 24" fill="currentColor"><path d="M16.0703 3.34403L14.6423 4.12503L16.0703 4.90604L16.8513 6.33405L17.6323 4.90604L19.0603 4.12503L17.6323 3.34403L16.8513 1.91602L16.0703 3.34403ZM2.22632 12C2.22632 6.47719 6.70347 2.00003 12.2263 2.00003H13.96L13.0919 3.50073C12.5134 4.50094 12.2263 5.68851 12.2263 7.00003C12.2263 10.866 15.3603 14 19.2263 14C19.6881 14 20.1385 13.9555 20.5738 13.8707L22.2564 13.5428L21.7135 15.1689C20.3886 19.1373 16.6431 22 12.2263 22C6.70347 22 2.22632 17.5229 2.22632 12ZM20.7263 6.41602L21.6399 8.08645L23.3103 9.00003L21.6399 9.91362L20.7263 11.5841L19.8127 9.91362L18.1423 9.00003L19.8127 8.08645L20.7263 6.41602Z" fill="currentColor" />
</symbol>
<symbol id="mode-light-filled" viewBox="0 0 25 24" fill="currentColor"><path d="M11.2256 -0.00341797H13.2295V2.00049H11.2256V-0.00341797ZM4.4494 2.80335L5.86631 4.22039L4.4494 5.6373L3.03236 4.22039L4.4494 2.80335ZM20.006 2.80357L21.4226 4.22033L20.006 5.63721L18.5883 4.22033L20.006 2.80357ZM4.22656 12.0005C4.22656 7.58221 7.80828 4.00049 12.2266 4.00049C16.6448 4.00049 20.2266 7.58221 20.2266 12.0005C20.2266 16.4188 16.6448 20.0005 12.2266 20.0005C7.80828 20.0005 4.22656 16.4188 4.22656 12.0005ZM0.225586 10.9966H2.22949V13.0005H0.225586V10.9966ZM22.2256 10.9966H24.2295V13.0005H22.2256V10.9966ZM4.44936 18.3598L5.86616 19.7765L4.44936 21.1941L3.03257 19.7765L4.44936 18.3598ZM20.006 18.36L21.4224 19.7765L20.006 21.1939L18.5885 19.7765L20.006 18.36ZM11.2256 21.9966H13.2295V24.0005H11.2256V21.9966Z" fill="currentColor" />
</symbol>
</svg>