<svg style="display:none;">
  <symbol id="td-add" viewBox="0 0 24 24" fill="currentColor"><path d="M13 4V11L20 11V13L13 13V20H11L11 13H4L4 11L11 11L11 4L13 4Z" fill="currentColor" />
</symbol>

<symbol id="td-delete-1-filled" viewBox="0 0 24 24" fill="currentColor"><path d="M7.5 3H16.5V1H7.5V3Z" fill="currentColor" />
    <path d="M22 6V4H2V6H4.02898L4.52898 23H19.471L19.971 6H22ZM16.2431 10.6715L13.4147 13.5L16.2431 16.3284L14.8289 17.7426L12.0005 14.9142L9.17203 17.7426L7.75781 16.3284L10.5862 13.5L7.75781 10.6715L9.17203 9.25732L12.0005 12.0858L14.8289 9.25732L16.2431 10.6715Z" fill="currentColor" />
</symbol>

<symbol id="td-edit" viewBox="0 0 24 24" fill="currentColor"><path d="M15.7478 2.94736C16.5289 2.16631 17.7952 2.16631 18.5763 2.94736L21.0511 5.42223C21.8322 6.20328 21.8322 7.46961 21.0511 8.25066L9.15806 20.1437L2.77832 21.2202L3.85476 14.8404L15.7478 2.94736ZM15.5192 6.00439L17.9941 8.47927L19.6369 6.83645L17.1621 4.36157L15.5192 6.00439ZM16.5799 9.89348L14.105 7.41861L5.72062 15.803L5.21828 18.7802L8.19549 18.2779L16.5799 9.89348Z" fill="currentColor" />
</symbol>
</svg>