<!-- static/icons.svg -->
<svg xmlns="http://www.w3.org/2000/svg" style="display:none;">
<symbol viewBox="0 0 48 48" id="feather"><!-- Icon from Plump color icons by Streamline - https://creativecommons.org/licenses/by/4.0/ --><g fill="none" stroke-width="3"><path fill="currentColor" d="M28.68 36.48c-7.364 4.322-14.976 4.651-23.18 4.02L7 36.001c0-11.868 6.265-22.273 15.668-28.088a.98.98 0 0 1 1.308.27L26 11c.348-1.858 2-5.75 2-5.75A32.9 32.9 0 0 1 40.001 3q1.608 0 3.178.151a1.85 1.85 0 0 1 1.67 1.67q.15 1.57.151 3.178c0 9.282-3.832 17.668-10 23.665c0 0-6.697 1.336-10 1.336l3.598 1.789c.69.343.746 1.301.081 1.691Z"></path><path stroke="#2859c5" stroke-linecap="round" stroke-linejoin="round" d="M11.999 41a32.85 32.85 0 0 0 16.68-4.52c.665-.39.61-1.348-.081-1.691L25 33c3.303 0 10-1.337 10-1.337c7.147-6.948 10.78-16.97 9.848-26.842a1.85 1.85 0 0 0-1.67-1.67A33.2 33.2 0 0 0 28 5.25S26.348 9.142 26 11l-2.024-2.817a.98.98 0 0 0-1.309-.271C13.264 13.687 7 23.36 7 36.5"></path><path stroke="#2859c5" stroke-linecap="round" stroke-linejoin="round" d="M3 45c5-14.5 21-27 34-34"></path></g></symbol>
<symbol viewBox="0 0 24 24" id="chart"><!-- Icon from Material Design Icons by Pictogrammers - https://github.com/Templarian/MaterialDesign/blob/master/LICENSE --><path fill="currentColor" d="M17.45 15.18L22 7.31V21H2V3h2v12.54L9.5 6L16 9.78l4.24-7.33l1.73 1l-5.23 9.05l-6.51-3.75L4.31 19h2.26l4.39-7.56z"></path></symbol>
<symbol viewBox="0 0 24 24" id="code"><!-- Icon from Solar by 480 Design - https://creativecommons.org/licenses/by/4.0/ --><g fill="none"><path fill="currentColor" d="m13.087 21.388l.645.382zm.542-.916l-.646-.382zm-3.258 0l-.645.382zm.542.916l.646-.382zm-8.532-5.475l.693-.287zm5.409 3.078l-.013.75zm-2.703-.372l-.287.693zm16.532-2.706l.693.287zm-5.409 3.078l-.012-.75zm2.703-.372l.287.693zm.7-15.882l-.392.64zm1.65 1.65l.64-.391zM4.388 2.738l-.392-.64zm-1.651 1.65l-.64-.391zM9.403 19.21l.377-.649zm4.33 2.56l.541-.916l-1.29-.764l-.543.916zm-4.007-.916l.542.916l1.29-.764l-.541-.916zm2.715.152a.52.52 0 0 1-.882 0l-1.291.764c.773 1.307 2.69 1.307 3.464 0zM10.5 2.75h3v-1.5h-3zm10.75 7.75v1h1.5v-1zm-18.5 1v-1h-1.5v1zm-1.5 0c0 1.155 0 2.058.05 2.787c.05.735.153 1.347.388 1.913l1.386-.574c-.147-.352-.233-.782-.278-1.441c-.046-.666-.046-1.51-.046-2.685zm6.553 6.742c-1.256-.022-1.914-.102-2.43-.316L4.8 19.313c.805.334 1.721.408 2.977.43zM1.688 16.2A5.75 5.75 0 0 0 4.8 19.312l.574-1.386a4.25 4.25 0 0 1-2.3-2.3zm19.562-4.7c0 1.175 0 2.019-.046 2.685c-.045.659-.131 1.089-.277 1.441l1.385.574c.235-.566.338-1.178.389-1.913c.05-.729.049-1.632.049-2.787zm-5.027 8.241c1.256-.021 2.172-.095 2.977-.429l-.574-1.386c-.515.214-1.173.294-2.428.316zm4.704-4.115a4.25 4.25 0 0 1-2.3 2.3l.573 1.386a5.75 5.75 0 0 0 3.112-3.112zM13.5 2.75c1.651 0 2.837 0 3.762.089c.914.087 1.495.253 1.959.537l.783-1.279c-.739-.452-1.577-.654-2.6-.752c-1.012-.096-2.282-.095-3.904-.095zm9.25 7.75c0-1.622 0-2.891-.096-3.904c-.097-1.023-.299-1.862-.751-2.6l-1.28.783c.285.464.451 1.045.538 1.96c.088.924.089 2.11.089 3.761zm-3.53-7.124a4.25 4.25 0 0 1 1.404 1.403l1.279-.783a5.75 5.75 0 0 0-1.899-1.899zM10.5 1.25c-1.622 0-2.891 0-3.904.095c-1.023.098-1.862.3-2.6.752l.783 1.28c.464-.285 1.045-.451 1.96-.538c.924-.088 2.11-.089 3.761-.089zM2.75 10.5c0-1.651 0-2.837.089-3.762c.087-.914.253-1.495.537-1.959l-1.279-.783c-.452.738-.654 1.577-.752 2.6C1.25 7.61 1.25 8.878 1.25 10.5zm1.246-8.403a5.75 5.75 0 0 0-1.899 1.899l1.28.783a4.25 4.25 0 0 1 1.402-1.403zm7.02 17.993c-.202-.343-.38-.646-.554-.884a2.2 2.2 0 0 0-.682-.645l-.754 1.297c.047.028.112.078.224.232c.121.166.258.396.476.764zm-3.24-.349c.44.008.718.014.93.037c.198.022.275.054.32.08l.754-1.297a2.2 2.2 0 0 0-.909-.274c-.298-.033-.657-.038-1.069-.045zm6.498 1.113c.218-.367.355-.598.476-.764c.112-.154.177-.204.224-.232l-.754-1.297c-.29.17-.5.395-.682.645c-.173.238-.352.54-.555.884zm1.924-2.612c-.412.007-.771.012-1.069.045c-.311.035-.616.104-.909.274l.754 1.297c.045-.026.122-.058.32-.08c.212-.023.49-.03.93-.037z"></path><path stroke="currentColor" stroke-linecap="round" stroke-width="1.5" d="m15.5 7.83l.172.172c1.333 1.333 2 2 2 2.828c0 .829-.667 1.495-2 2.829l-.172.171M13.294 6L12 10.83l-1.294 4.83M8.5 7.83l-.171.172c-1.334 1.333-2 2-2 2.828c0 .829.666 1.495 2 2.829l.171.171"></path></g></symbol>
<symbol viewBox="0 0 24 24" id="td"><!-- Icon from Material Symbols by Google - https://github.com/google/material-design-icons/blob/master/LICENSE --><path fill="currentColor" d="M12 15q1.25 0 2.125-.875T15 12t-.875-2.125T12 9t-2.125.875T9 12t.875 2.125T12 15m0 7q-2.075 0-3.9-.788t-3.175-2.137T2.788 15.9T2 12t.788-3.9t2.137-3.175T8.1 2.788T12 2t3.9.788t3.175 2.137T21.213 8.1T22 12t-.788 3.9t-2.137 3.175t-3.175 2.138T12 22"></path></symbol>
</svg>